<svg xmlns="http://www.w3.org/2000/svg" viewBox="0 0 16 16">
  <circle cx="8" cy="8" r="8" fill="#0a0f26"/>
  <g>
    <path d="M10.82,9.92,4.58,8.54,5,6.13l6.47,1.33Z" fill="#ffed99"/>
    <path d="M9,5,7.1,4.42A1.25,1.25,0,0,1,6.22,3,1.23,1.23,0,0,1,7.74,2l1.85.45Z" fill="#ffed99"/>
    <path d="M7,11.05l1.87.53A1.23,1.23,0,0,1,8.27,14l-1.85-.45Z" fill="#ffed99"/>
    <path d="M11.43,7.46a2.4,2.4,0,0,1-1.08,3.18c-.33.18-.69.37-1,.59a17.41,17.41,0,0,0-2.91,2.28A2.67,2.67,0,0,1,7.33,10ZM4.58,8.54A2.39,2.39,0,0,1,5.64,5.36c.33-.18.69-.37,1-.59A17.08,17.08,0,0,0,9.59,2.49a2.67,2.67,0,0,1-.91,3.56Z" fill="#ffd101"/>
  </g>
</svg>
