<svg width="15" height="6" viewBox="0 0 15 6" fill="none" xmlns="http://www.w3.org/2000/svg">
<path d="M4.75 5C4.75 4.44772 5.19771 4 5.75 4C6.30228 4 6.75 4.44772 6.75 5C6.75 5.55228 6.30228 6 5.75 6C5.19771 6 4.75 5.55228 4.75 5Z" fill="black" fill-opacity="0.6"/>
<path d="M0.75 5C0.75 4.44772 1.19772 4 1.75 4C2.30228 4 2.75 4.44772 2.75 5C2.75 5.55228 2.30228 6 1.75 6C1.19772 6 0.75 5.55228 0.75 5Z" fill="black" fill-opacity="0.6"/>
<path d="M8.75 5C8.75 4.44771 9.19771 4 9.75 4C10.3023 4 10.75 4.44771 10.75 5C10.75 5.55228 10.3023 6 9.75 6C9.19771 6 8.75 5.55228 8.75 5Z" fill="black" fill-opacity="0.6"/>
<path d="M4.75 1C4.75 0.447715 5.19772 -1.94416e-07 5.75 -2.18557e-07C6.30228 -2.42698e-07 6.75 0.447715 6.75 1C6.75 1.55228 6.30228 2 5.75 2C5.19772 2 4.75 1.55228 4.75 1Z" fill="black" fill-opacity="0.6"/>
<path d="M0.75 1C0.75 0.447715 1.19772 -1.95703e-08 1.75 -4.37114e-08C2.30228 -6.78525e-08 2.75 0.447715 2.75 1C2.75 1.55228 2.30228 2 1.75 2C1.19772 2 0.75 1.55228 0.75 1Z" fill="black" fill-opacity="0.6"/>
<path d="M8.75 1C8.75 0.447715 9.19772 -3.69261e-07 9.75 -3.93402e-07C10.3023 -4.17544e-07 10.75 0.447715 10.75 1C10.75 1.55228 10.3023 2 9.75 2C9.19772 2 8.75 1.55228 8.75 1Z" fill="black" fill-opacity="0.6"/>
<path d="M12.75 5C12.75 4.44771 13.1977 4 13.75 4C14.3023 4 14.75 4.44772 14.75 5C14.75 5.55229 14.3023 6 13.75 6C13.1977 6 12.75 5.55228 12.75 5Z" fill="black" fill-opacity="0.6"/>
<path d="M12.75 1C12.75 0.447716 13.1977 4.09567e-07 13.75 3.85426e-07C14.3023 3.61285e-07 14.75 0.447716 14.75 1C14.75 1.55229 14.3023 2 13.75 2C13.1977 2 12.75 1.55229 12.75 1Z" fill="black" fill-opacity="0.6"/>
</svg>
