<svg width="14" height="6" viewBox="0 0 14 6" fill="none" xmlns="http://www.w3.org/2000/svg">
<path d="M4 5C4 4.44772 4.44771 4 5 4C5.55228 4 6 4.44772 6 5C6 5.55228 5.55228 6 5 6C4.44771 6 4 5.55228 4 5Z" fill="white"/>
<path d="M4.37115e-08 5C4.37115e-08 4.44772 0.447715 4 1 4C1.55228 4 2 4.44772 2 5C2 5.55228 1.55228 6 1 6C0.447715 6 4.37115e-08 5.55228 4.37115e-08 5Z" fill="white"/>
<path d="M8 5C8 4.44771 8.44771 4 9 4C9.55228 4 10 4.44771 10 5C10 5.55228 9.55228 6 9 6C8.44771 6 8 5.55228 8 5Z" fill="white"/>
<path d="M4 1C4 0.447715 4.44772 -1.94416e-07 5 -2.18557e-07C5.55228 -2.42698e-07 6 0.447715 6 1C6 1.55228 5.55228 2 5 2C4.44772 2 4 1.55228 4 1Z" fill="white"/>
<path d="M-2.18557e-07 1C-2.18557e-07 0.447715 0.447715 -1.95703e-08 1 -4.37114e-08C1.55228 -6.78525e-08 2 0.447715 2 1C2 1.55228 1.55228 2 1 2C0.447715 2 -2.18557e-07 1.55228 -2.18557e-07 1Z" fill="white"/>
<path d="M8 1C8 0.447715 8.44772 -3.69261e-07 9 -3.93402e-07C9.55228 -4.17544e-07 10 0.447715 10 1C10 1.55228 9.55228 2 9 2C8.44772 2 8 1.55228 8 1Z" fill="white"/>
<path d="M12 5C12 4.44771 12.4477 4 13 4C13.5523 4 14 4.44772 14 5C14 5.55229 13.5523 6 13 6C12.4477 6 12 5.55228 12 5Z" fill="white"/>
<path d="M12 1C12 0.447716 12.4477 4.09567e-07 13 3.85426e-07C13.5523 3.61285e-07 14 0.447716 14 1C14 1.55229 13.5523 2 13 2C12.4477 2 12 1.55229 12 1Z" fill="white"/>
</svg>
