<svg width="6" height="10" viewBox="0 0 6 10" fill="none" xmlns="http://www.w3.org/2000/svg">
<path d="M1 4C1.55228 4 2 4.44771 2 5C2 5.55228 1.55228 6 1 6C0.447715 6 -2.41411e-08 5.55228 0 5C2.41411e-08 4.44771 0.447715 4 1 4Z" fill="black" fill-opacity="0.6"/>
<path d="M1 8.74229e-08C1.55228 1.11564e-07 2 0.447715 2 1C2 1.55228 1.55228 2 1 2C0.447715 2 -2.41411e-08 1.55228 0 1C2.41411e-08 0.447715 0.447715 6.32818e-08 1 8.74229e-08Z" fill="black" fill-opacity="0.6"/>
<path d="M1 8C1.55228 8 2 8.44771 2 9C2 9.55228 1.55228 10 1 10C0.447715 10 -2.41411e-08 9.55228 0 9C2.41411e-08 8.44771 0.447715 8 1 8Z" fill="black" fill-opacity="0.6"/>
<path d="M5 4C5.55228 4 6 4.44772 6 5C6 5.55228 5.55228 6 5 6C4.44772 6 4 5.55228 4 5C4 4.44772 4.44772 4 5 4Z" fill="black" fill-opacity="0.6"/>
<path d="M5 0C5.55228 2.41411e-08 6 0.447715 6 1C6 1.55228 5.55228 2 5 2C4.44772 2 4 1.55228 4 1C4 0.447715 4.44772 -2.41411e-08 5 0Z" fill="black" fill-opacity="0.6"/>
<path d="M5 8C5.55228 8 6 8.44772 6 9C6 9.55228 5.55228 10 5 10C4.44772 10 4 9.55228 4 9C4 8.44772 4.44772 8 5 8Z" fill="black" fill-opacity="0.6"/>
</svg>
