<svg width="161" height="61" viewBox="0 0 161 61" fill="none" xmlns="http://www.w3.org/2000/svg">
<rect y="0.0698242" width="161" height="60" rx="10" fill="white" fill-opacity="0.2"/>
<g clip-path="url(#clip0_2438_1057)">
<path d="M24.81 27.0888V33.8119C24.81 34.7059 24.0726 35.42 23.1342 35.42C22.2019 35.42 21.3 34.7001 21.3 33.8119V27.0888C21.3 26.2122 22.2019 25.4922 23.1342 25.4922C24.0544 25.4922 24.81 26.2122 24.81 27.0888ZM25.4681 36.2038C25.4681 37.156 26.2725 37.9223 27.2719 37.9223H28.4845L28.5028 41.4696C28.5028 43.6119 31.8665 43.5945 31.8665 41.4696V37.9223H34.1334V41.4696C34.1334 43.6003 37.5155 43.6061 37.5155 41.4696V37.9223H38.7464C39.7336 37.9223 40.538 37.156 40.538 36.2038V25.7883H25.4681V36.2038ZM40.5806 25.2252H25.4011C25.4011 22.7403 26.9611 20.5806 29.2767 19.4543L28.1128 17.4049C27.9422 17.1204 28.3748 16.9404 28.5211 17.1842L29.7033 19.2511C31.83 18.3512 34.2736 18.3976 36.3028 19.2511L37.4789 17.19C37.6312 16.9404 38.0578 17.1262 37.8872 17.4107L36.7233 19.4543C39.0206 20.5806 40.5806 22.7403 40.5806 25.2252ZM30.1786 22.003C30.1786 21.6721 29.8983 21.3934 29.5387 21.3934C29.1914 21.3934 28.9172 21.6721 28.9172 22.003C28.9172 22.3339 29.1975 22.6126 29.5387 22.6126C29.8983 22.6126 30.1786 22.3339 30.1786 22.003ZM37.0889 22.003C37.0889 21.6721 36.8086 21.3934 36.4673 21.3934C36.1078 21.3934 35.8275 21.6721 35.8275 22.003C35.8275 22.3339 36.1078 22.6126 36.4673 22.6126C36.8086 22.6126 37.0889 22.3339 37.0889 22.003ZM42.8658 25.4922C41.9456 25.4922 41.19 26.1947 41.19 27.0888V33.8119C41.19 34.7059 41.9456 35.42 42.8658 35.42C43.8042 35.42 44.7 34.7001 44.7 33.8119V27.0888C44.7 26.1947 43.7981 25.4922 42.8658 25.4922Z" fill="white"/>
</g>
<path d="M62.812 26.2018C62.196 26.2018 61.616 26.0898 61.072 25.8658C60.536 25.6418 60.068 25.3338 59.668 24.9418C59.268 24.5418 58.952 24.0778 58.72 23.5498C58.496 23.0138 58.384 22.4378 58.384 21.8218C58.384 21.2058 58.5 20.6338 58.732 20.1058C58.964 19.5778 59.284 19.1178 59.692 18.7258C60.108 18.3258 60.592 18.0178 61.144 17.8018C61.696 17.5778 62.288 17.4658 62.92 17.4658C63.648 17.4658 64.308 17.5978 64.9 17.8618C65.5 18.1258 65.996 18.4898 66.388 18.9538L65.104 20.2378C64.832 19.8858 64.512 19.6218 64.144 19.4458C63.776 19.2698 63.36 19.1818 62.896 19.1818C62.4 19.1818 61.956 19.2938 61.564 19.5178C61.172 19.7338 60.864 20.0418 60.64 20.4418C60.424 20.8338 60.316 21.2938 60.316 21.8218C60.316 22.3498 60.424 22.8138 60.64 23.2138C60.856 23.6138 61.152 23.9258 61.528 24.1498C61.904 24.3738 62.336 24.4858 62.824 24.4858C63.32 24.4858 63.74 24.3938 64.084 24.2098C64.436 24.0178 64.704 23.7458 64.888 23.3938C65.08 23.0338 65.176 22.5978 65.176 22.0858L66.424 22.9258L62.644 22.8658V21.2698H67.096V21.5458C67.096 22.5618 66.912 23.4178 66.544 24.1138C66.184 24.8018 65.68 25.3218 65.032 25.6738C64.392 26.0258 63.652 26.2018 62.812 26.2018ZM68.2979 26.0698V17.5978H70.1819V26.0698H68.2979ZM69.7379 26.0698V24.4378H74.3819V26.0698H69.7379ZM69.7379 22.5298V20.9578H73.9619V22.5298H69.7379ZM69.7379 19.2178V17.5978H74.3219V19.2178H69.7379ZM77.5589 26.0698V17.7178H79.4429V26.0698H77.5589ZM74.9069 19.2418V17.5978H82.0949V19.2418H74.9069ZM87.2531 26.0698V17.7178H89.1371V26.0698H87.2531ZM84.6011 19.2418V17.5978H91.7891V19.2418H84.6011ZM92.9012 26.0698V17.5978H94.7852V26.0698H92.9012ZM98.1452 26.0698V17.5978H100.041V26.0698H98.1452ZM94.0292 22.5298V20.8978H98.7692V22.5298H94.0292ZM101.727 26.0698V17.5978H103.611V26.0698H101.727ZM107.682 26.2018C106.986 26.2018 106.386 26.0898 105.882 25.8658C105.386 25.6338 104.93 25.2858 104.514 24.8218L105.738 23.6098C106.01 23.9218 106.31 24.1658 106.638 24.3418C106.974 24.5098 107.362 24.5938 107.802 24.5938C108.202 24.5938 108.51 24.5218 108.726 24.3778C108.95 24.2338 109.062 24.0338 109.062 23.7778C109.062 23.5458 108.99 23.3578 108.846 23.2138C108.702 23.0698 108.51 22.9458 108.27 22.8418C108.038 22.7378 107.778 22.6378 107.49 22.5418C107.21 22.4458 106.93 22.3378 106.65 22.2178C106.37 22.0898 106.11 21.9338 105.87 21.7498C105.638 21.5578 105.45 21.3218 105.306 21.0418C105.162 20.7538 105.09 20.3938 105.09 19.9618C105.09 19.4418 105.214 18.9938 105.462 18.6178C105.718 18.2418 106.07 17.9578 106.518 17.7658C106.966 17.5658 107.482 17.4658 108.066 17.4658C108.658 17.4658 109.198 17.5698 109.686 17.7778C110.182 17.9858 110.59 18.2698 110.91 18.6298L109.686 19.8418C109.43 19.5778 109.17 19.3818 108.906 19.2538C108.65 19.1258 108.358 19.0618 108.03 19.0618C107.702 19.0618 107.442 19.1258 107.25 19.2538C107.058 19.3738 106.962 19.5498 106.962 19.7818C106.962 19.9978 107.034 20.1738 107.178 20.3098C107.322 20.4378 107.51 20.5498 107.742 20.6458C107.982 20.7418 108.242 20.8378 108.522 20.9338C108.81 21.0298 109.094 21.1418 109.374 21.2698C109.654 21.3978 109.91 21.5618 110.142 21.7618C110.382 21.9538 110.574 22.2018 110.718 22.5058C110.862 22.8018 110.934 23.1698 110.934 23.6098C110.934 24.4178 110.646 25.0538 110.07 25.5178C109.494 25.9738 108.698 26.2018 107.682 26.2018ZM113.564 26.0698L116.924 17.5978H118.628L121.952 26.0698H119.96L117.416 19.0378H118.1L115.52 26.0698H113.564ZM115.472 24.5338V22.9978H120.092V24.5338H115.472ZM124.348 22.9858V21.5218H126.172C126.404 21.5218 126.616 21.4738 126.808 21.3778C127 21.2818 127.152 21.1418 127.264 20.9578C127.376 20.7738 127.432 20.5498 127.432 20.2858C127.432 20.0298 127.376 19.8098 127.264 19.6258C127.152 19.4418 127 19.3018 126.808 19.2058C126.616 19.1098 126.404 19.0618 126.172 19.0618H124.348V17.5978H126.448C126.984 17.5978 127.468 17.7058 127.9 17.9218C128.332 18.1378 128.672 18.4498 128.92 18.8578C129.176 19.2578 129.304 19.7338 129.304 20.2858C129.304 20.8378 129.176 21.3178 128.92 21.7258C128.672 22.1258 128.332 22.4378 127.9 22.6618C127.468 22.8778 126.984 22.9858 126.448 22.9858H124.348ZM122.908 26.0698V17.5978H124.792V26.0698H122.908ZM131.861 22.9858V21.5218H133.685C133.917 21.5218 134.129 21.4738 134.321 21.3778C134.513 21.2818 134.665 21.1418 134.777 20.9578C134.889 20.7738 134.945 20.5498 134.945 20.2858C134.945 20.0298 134.889 19.8098 134.777 19.6258C134.665 19.4418 134.513 19.3018 134.321 19.2058C134.129 19.1098 133.917 19.0618 133.685 19.0618H131.861V17.5978H133.961C134.497 17.5978 134.981 17.7058 135.413 17.9218C135.845 18.1378 136.185 18.4498 136.433 18.8578C136.689 19.2578 136.817 19.7338 136.817 20.2858C136.817 20.8378 136.689 21.3178 136.433 21.7258C136.185 22.1258 135.845 22.4378 135.413 22.6618C134.981 22.8778 134.497 22.9858 133.961 22.9858H131.861ZM130.421 26.0698V17.5978H132.305V26.0698H130.421Z" fill="white"/>
<path d="M64.1816 38.4595H67.8218V43.667C67.2554 43.8477 66.6792 43.9844 66.0933 44.0771C65.5073 44.1699 64.8286 44.2163 64.0571 44.2163C62.436 44.2163 61.1738 43.7354 60.2705 42.7734C59.3672 41.8066 58.9155 40.4541 58.9155 38.7158C58.9155 37.6025 59.1377 36.6284 59.582 35.7935C60.0312 34.9536 60.6758 34.314 61.5156 33.8745C62.3555 33.4302 63.3394 33.208 64.4673 33.208C65.6099 33.208 66.6743 33.418 67.6606 33.8379L67.1772 34.9365C66.2104 34.5264 65.2803 34.3213 64.3867 34.3213C63.083 34.3213 62.0649 34.7095 61.3325 35.4858C60.6001 36.2622 60.2339 37.3389 60.2339 38.7158C60.2339 40.1611 60.5854 41.2573 61.2886 42.0044C61.9966 42.7515 63.0342 43.125 64.4014 43.125C65.1436 43.125 65.8687 43.0396 66.5767 42.8687V39.5728H64.1816V38.4595ZM77.2205 40.0488C77.2205 41.3574 76.8909 42.3804 76.2317 43.1177C75.5726 43.8501 74.6619 44.2163 73.4998 44.2163C72.782 44.2163 72.1448 44.0479 71.5882 43.7109C71.0315 43.374 70.6019 42.8906 70.2991 42.2607C69.9964 41.6309 69.845 40.8936 69.845 40.0488C69.845 38.7402 70.1722 37.7222 70.8265 36.9946C71.4808 36.2622 72.389 35.896 73.5511 35.896C74.6741 35.896 75.5652 36.2695 76.2244 37.0166C76.8885 37.7637 77.2205 38.7744 77.2205 40.0488ZM71.1048 40.0488C71.1048 41.0742 71.3099 41.8555 71.72 42.3926C72.1302 42.9297 72.7332 43.1982 73.5291 43.1982C74.325 43.1982 74.928 42.9321 75.3382 42.3999C75.7532 41.8628 75.9607 41.0791 75.9607 40.0488C75.9607 39.0283 75.7532 38.2544 75.3382 37.7271C74.928 37.1948 74.3201 36.9287 73.5145 36.9287C72.7186 36.9287 72.118 37.1899 71.7127 37.7124C71.3074 38.2349 71.1048 39.0137 71.1048 40.0488ZM86.3629 40.0488C86.3629 41.3574 86.0333 42.3804 85.3741 43.1177C84.7149 43.8501 83.8043 44.2163 82.6422 44.2163C81.9244 44.2163 81.2872 44.0479 80.7306 43.7109C80.1739 43.374 79.7442 42.8906 79.4415 42.2607C79.1388 41.6309 78.9874 40.8936 78.9874 40.0488C78.9874 38.7402 79.3146 37.7222 79.9688 36.9946C80.6231 36.2622 81.5313 35.896 82.6935 35.896C83.8165 35.896 84.7076 36.2695 85.3668 37.0166C86.0309 37.7637 86.3629 38.7744 86.3629 40.0488ZM80.2472 40.0488C80.2472 41.0742 80.4522 41.8555 80.8624 42.3926C81.2726 42.9297 81.8756 43.1982 82.6715 43.1982C83.4674 43.1982 84.0704 42.9321 84.4806 42.3999C84.8956 41.8628 85.1031 41.0791 85.1031 40.0488C85.1031 39.0283 84.8956 38.2544 84.4806 37.7271C84.0704 37.1948 83.4625 36.9287 82.6568 36.9287C81.8609 36.9287 81.2604 37.1899 80.8551 37.7124C80.4498 38.2349 80.2472 39.0137 80.2472 40.0488ZM95.1464 36.0425V36.8115L93.6596 36.9873C93.7963 37.1582 93.9184 37.3828 94.0258 37.6611C94.1332 37.9346 94.1869 38.2446 94.1869 38.5913C94.1869 39.3774 93.9184 40.0049 93.3813 40.4736C92.8441 40.9424 92.1068 41.1768 91.1693 41.1768C90.9301 41.1768 90.7055 41.1572 90.4955 41.1182C89.9779 41.3916 89.7191 41.7358 89.7191 42.1509C89.7191 42.3706 89.8095 42.5342 89.9901 42.6416C90.1708 42.7441 90.4809 42.7954 90.9203 42.7954H92.3412C93.2104 42.7954 93.8769 42.9785 94.3407 43.3447C94.8095 43.7109 95.0438 44.2432 95.0438 44.9414C95.0438 45.8301 94.6874 46.5063 93.9745 46.9702C93.2616 47.439 92.2216 47.6733 90.8544 47.6733C89.8046 47.6733 88.994 47.478 88.4228 47.0874C87.8563 46.6968 87.5731 46.145 87.5731 45.4321C87.5731 44.9438 87.7294 44.5215 88.0419 44.165C88.3544 43.8086 88.7938 43.5669 89.3603 43.4399C89.1552 43.3472 88.9818 43.2031 88.8402 43.0078C88.7035 42.8125 88.6352 42.5854 88.6352 42.3267C88.6352 42.0337 88.7133 41.7773 88.8695 41.5576C89.0258 41.3379 89.2724 41.1255 89.6093 40.9204C89.1942 40.7495 88.8549 40.459 88.5912 40.0488C88.3324 39.6387 88.203 39.1699 88.203 38.6426C88.203 37.7637 88.4667 37.0874 88.994 36.6138C89.5214 36.1353 90.2685 35.896 91.2353 35.896C91.6552 35.896 92.0336 35.9448 92.3705 36.0425H95.1464ZM88.745 45.4175C88.745 45.8521 88.9281 46.1816 89.2943 46.4062C89.6605 46.6309 90.1854 46.7432 90.869 46.7432C91.8896 46.7432 92.6439 46.5894 93.1322 46.2817C93.6254 45.979 93.872 45.5664 93.872 45.0439C93.872 44.6094 93.7377 44.3066 93.4691 44.1357C93.2006 43.9697 92.6952 43.8867 91.953 43.8867H90.4955C89.9438 43.8867 89.5141 44.0186 89.2064 44.2822C88.8988 44.5459 88.745 44.9243 88.745 45.4175ZM89.4042 38.6133C89.4042 39.1748 89.5629 39.5996 89.8803 39.8877C90.1977 40.1758 90.6396 40.3198 91.206 40.3198C92.3925 40.3198 92.9857 39.7437 92.9857 38.5913C92.9857 37.3853 92.3852 36.7822 91.184 36.7822C90.6127 36.7822 90.1732 36.936 89.8656 37.2437C89.558 37.5513 89.4042 38.0078 89.4042 38.6133ZM98.0852 44.0698H96.8693V32.6733H98.0852V44.0698ZM104.129 44.2163C102.943 44.2163 102.005 43.855 101.317 43.1323C100.633 42.4097 100.292 41.4062 100.292 40.1221C100.292 38.8281 100.609 37.8003 101.244 37.0386C101.883 36.2769 102.74 35.896 103.814 35.896C104.82 35.896 105.616 36.228 106.202 36.8921C106.788 37.5513 107.081 38.4229 107.081 39.5068V40.2759H101.551C101.576 41.2183 101.812 41.9336 102.262 42.4219C102.716 42.9102 103.353 43.1543 104.173 43.1543C105.038 43.1543 105.892 42.9736 106.737 42.6123V43.6963C106.307 43.8818 105.899 44.0137 105.514 44.0918C105.133 44.1748 104.671 44.2163 104.129 44.2163ZM103.8 36.9141C103.155 36.9141 102.64 37.124 102.254 37.5439C101.874 37.9639 101.649 38.5449 101.581 39.2871H105.777C105.777 38.5205 105.606 37.9346 105.265 37.5293C104.923 37.1191 104.435 36.9141 103.8 36.9141ZM120.18 36.4819C120.18 37.5659 119.809 38.4009 119.067 38.9868C118.33 39.5679 117.273 39.8584 115.896 39.8584H114.636V44.0698H113.391V33.3618H116.167C118.842 33.3618 120.18 34.4019 120.18 36.4819ZM114.636 38.7891H115.756C116.86 38.7891 117.658 38.6108 118.151 38.2544C118.645 37.8979 118.891 37.3267 118.891 36.5405C118.891 35.8325 118.659 35.3052 118.195 34.9585C117.732 34.6118 117.009 34.4385 116.027 34.4385H114.636V38.7891ZM123.537 44.0698H122.321V32.6733H123.537V44.0698ZM131.126 44.0698L130.884 42.9272H130.826C130.425 43.4302 130.025 43.772 129.625 43.9526C129.229 44.1284 128.734 44.2163 128.138 44.2163C127.342 44.2163 126.717 44.0112 126.263 43.6011C125.814 43.1909 125.589 42.6074 125.589 41.8506C125.589 40.2295 126.885 39.3799 129.478 39.3018L130.841 39.2578V38.7598C130.841 38.1299 130.704 37.666 130.43 37.3682C130.162 37.0654 129.73 36.9141 129.134 36.9141C128.465 36.9141 127.708 37.1191 126.863 37.5293L126.49 36.5991C126.885 36.3843 127.318 36.2158 127.786 36.0938C128.26 35.9717 128.734 35.9106 129.207 35.9106C130.164 35.9106 130.872 36.123 131.331 36.5479C131.795 36.9727 132.027 37.6538 132.027 38.5913V44.0698H131.126ZM128.38 43.2129C129.136 43.2129 129.73 43.0054 130.159 42.5903C130.594 42.1753 130.811 41.5942 130.811 40.8472V40.1221L129.595 40.1733C128.629 40.2075 127.93 40.3589 127.501 40.6274C127.076 40.8911 126.863 41.3037 126.863 41.8652C126.863 42.3047 126.995 42.6392 127.259 42.8687C127.528 43.0981 127.901 43.2129 128.38 43.2129ZM133.34 36.0425H134.644L136.401 40.6201C136.787 41.665 137.026 42.4194 137.119 42.8833H137.178C137.241 42.6343 137.373 42.2095 137.573 41.6089C137.778 41.0034 138.442 39.1479 139.565 36.0425H140.869L137.419 45.1831C137.078 46.0864 136.677 46.7261 136.218 47.1021C135.764 47.4829 135.205 47.6733 134.541 47.6733C134.17 47.6733 133.804 47.6318 133.442 47.5488V46.5747C133.711 46.6333 134.011 46.6626 134.343 46.6626C135.178 46.6626 135.774 46.1938 136.13 45.2563L136.577 44.1138L133.34 36.0425Z" fill="white"/>
<defs>
<clipPath id="clip0_2438_1057">
<rect width="26" height="26" fill="white" transform="translate(20 17.0698)"/>
</clipPath>
</defs>
</svg>
