<svg width="159" height="61" viewBox="0 0 159 61" fill="none" xmlns="http://www.w3.org/2000/svg">
<rect x="0.5" y="0.0698242" width="158" height="60" rx="10" fill="white" fill-opacity="0.2"/>
<g clip-path="url(#clip0_2438_1064)">
<path d="M40.4904 30.8094C40.4794 28.6791 41.3967 27.0712 43.2535 25.8871C42.2146 24.3256 40.6452 23.4665 38.5729 23.2982C36.6112 23.1357 34.4671 24.4997 33.6824 24.4997C32.8535 24.4997 30.9525 23.3562 29.4605 23.3562C26.3769 23.4085 23.1 25.9393 23.1 31.088C23.1 32.6088 23.3653 34.1799 23.8958 35.8014C24.6031 37.9317 27.1561 43.1558 29.8197 43.0687C31.2122 43.0339 32.1959 42.0297 34.0084 42.0297C35.7657 42.0297 36.6775 43.0687 38.2303 43.0687C40.9159 43.0281 43.2258 38.2799 43.9 36.1438C40.297 34.3618 40.4904 30.9197 40.4904 30.8094ZM37.3627 21.2782C38.8713 19.3975 38.7332 17.6851 38.689 17.0698C37.3572 17.1511 35.8154 18.0218 34.9368 19.0956C33.9697 20.245 33.4005 21.6671 33.5221 23.2692C34.9644 23.3853 36.2796 22.6074 37.3627 21.2782Z" fill="white"/>
</g>
<path d="M63.312 26.2018C62.696 26.2018 62.116 26.0898 61.572 25.8658C61.036 25.6418 60.568 25.3338 60.168 24.9418C59.768 24.5418 59.452 24.0778 59.22 23.5498C58.996 23.0138 58.884 22.4378 58.884 21.8218C58.884 21.2058 59 20.6338 59.232 20.1058C59.464 19.5778 59.784 19.1178 60.192 18.7258C60.608 18.3258 61.092 18.0178 61.644 17.8018C62.196 17.5778 62.788 17.4658 63.42 17.4658C64.148 17.4658 64.808 17.5978 65.4 17.8618C66 18.1258 66.496 18.4898 66.888 18.9538L65.604 20.2378C65.332 19.8858 65.012 19.6218 64.644 19.4458C64.276 19.2698 63.86 19.1818 63.396 19.1818C62.9 19.1818 62.456 19.2938 62.064 19.5178C61.672 19.7338 61.364 20.0418 61.14 20.4418C60.924 20.8338 60.816 21.2938 60.816 21.8218C60.816 22.3498 60.924 22.8138 61.14 23.2138C61.356 23.6138 61.652 23.9258 62.028 24.1498C62.404 24.3738 62.836 24.4858 63.324 24.4858C63.82 24.4858 64.24 24.3938 64.584 24.2098C64.936 24.0178 65.204 23.7458 65.388 23.3938C65.58 23.0338 65.676 22.5978 65.676 22.0858L66.924 22.9258L63.144 22.8658V21.2698H67.596V21.5458C67.596 22.5618 67.412 23.4178 67.044 24.1138C66.684 24.8018 66.18 25.3218 65.532 25.6738C64.892 26.0258 64.152 26.2018 63.312 26.2018ZM68.7979 26.0698V17.5978H70.6819V26.0698H68.7979ZM70.2379 26.0698V24.4378H74.8819V26.0698H70.2379ZM70.2379 22.5298V20.9578H74.4619V22.5298H70.2379ZM70.2379 19.2178V17.5978H74.8219V19.2178H70.2379ZM78.0589 26.0698V17.7178H79.9429V26.0698H78.0589ZM75.4069 19.2418V17.5978H82.5949V19.2418H75.4069ZM87.7531 26.0698V17.7178H89.6371V26.0698H87.7531ZM85.1011 19.2418V17.5978H92.2891V19.2418H85.1011ZM93.4012 26.0698V17.5978H95.2852V26.0698H93.4012ZM98.6452 26.0698V17.5978H100.541V26.0698H98.6452ZM94.5292 22.5298V20.8978H99.2692V22.5298H94.5292ZM102.227 26.0698V17.5978H104.111V26.0698H102.227ZM108.182 26.2018C107.486 26.2018 106.886 26.0898 106.382 25.8658C105.886 25.6338 105.43 25.2858 105.014 24.8218L106.238 23.6098C106.51 23.9218 106.81 24.1658 107.138 24.3418C107.474 24.5098 107.862 24.5938 108.302 24.5938C108.702 24.5938 109.01 24.5218 109.226 24.3778C109.45 24.2338 109.562 24.0338 109.562 23.7778C109.562 23.5458 109.49 23.3578 109.346 23.2138C109.202 23.0698 109.01 22.9458 108.77 22.8418C108.538 22.7378 108.278 22.6378 107.99 22.5418C107.71 22.4458 107.43 22.3378 107.15 22.2178C106.87 22.0898 106.61 21.9338 106.37 21.7498C106.138 21.5578 105.95 21.3218 105.806 21.0418C105.662 20.7538 105.59 20.3938 105.59 19.9618C105.59 19.4418 105.714 18.9938 105.962 18.6178C106.218 18.2418 106.57 17.9578 107.018 17.7658C107.466 17.5658 107.982 17.4658 108.566 17.4658C109.158 17.4658 109.698 17.5698 110.186 17.7778C110.682 17.9858 111.09 18.2698 111.41 18.6298L110.186 19.8418C109.93 19.5778 109.67 19.3818 109.406 19.2538C109.15 19.1258 108.858 19.0618 108.53 19.0618C108.202 19.0618 107.942 19.1258 107.75 19.2538C107.558 19.3738 107.462 19.5498 107.462 19.7818C107.462 19.9978 107.534 20.1738 107.678 20.3098C107.822 20.4378 108.01 20.5498 108.242 20.6458C108.482 20.7418 108.742 20.8378 109.022 20.9338C109.31 21.0298 109.594 21.1418 109.874 21.2698C110.154 21.3978 110.41 21.5618 110.642 21.7618C110.882 21.9538 111.074 22.2018 111.218 22.5058C111.362 22.8018 111.434 23.1698 111.434 23.6098C111.434 24.4178 111.146 25.0538 110.57 25.5178C109.994 25.9738 109.198 26.2018 108.182 26.2018ZM114.064 26.0698L117.424 17.5978H119.128L122.452 26.0698H120.46L117.916 19.0378H118.6L116.02 26.0698H114.064ZM115.972 24.5338V22.9978H120.592V24.5338H115.972ZM124.848 22.9858V21.5218H126.672C126.904 21.5218 127.116 21.4738 127.308 21.3778C127.5 21.2818 127.652 21.1418 127.764 20.9578C127.876 20.7738 127.932 20.5498 127.932 20.2858C127.932 20.0298 127.876 19.8098 127.764 19.6258C127.652 19.4418 127.5 19.3018 127.308 19.2058C127.116 19.1098 126.904 19.0618 126.672 19.0618H124.848V17.5978H126.948C127.484 17.5978 127.968 17.7058 128.4 17.9218C128.832 18.1378 129.172 18.4498 129.42 18.8578C129.676 19.2578 129.804 19.7338 129.804 20.2858C129.804 20.8378 129.676 21.3178 129.42 21.7258C129.172 22.1258 128.832 22.4378 128.4 22.6618C127.968 22.8778 127.484 22.9858 126.948 22.9858H124.848ZM123.408 26.0698V17.5978H125.292V26.0698H123.408ZM132.361 22.9858V21.5218H134.185C134.417 21.5218 134.629 21.4738 134.821 21.3778C135.013 21.2818 135.165 21.1418 135.277 20.9578C135.389 20.7738 135.445 20.5498 135.445 20.2858C135.445 20.0298 135.389 19.8098 135.277 19.6258C135.165 19.4418 135.013 19.3018 134.821 19.2058C134.629 19.1098 134.417 19.0618 134.185 19.0618H132.361V17.5978H134.461C134.997 17.5978 135.481 17.7058 135.913 17.9218C136.345 18.1378 136.685 18.4498 136.933 18.8578C137.189 19.2578 137.317 19.7338 137.317 20.2858C137.317 20.8378 137.189 21.3178 136.933 21.7258C136.685 22.1258 136.345 22.4378 135.913 22.6618C135.481 22.8778 134.997 22.9858 134.461 22.9858H132.361ZM130.921 26.0698V17.5978H132.805V26.0698H130.921Z" fill="white"/>
<path d="M66.7031 44.0698L65.3701 40.6641H61.0781L59.7598 44.0698H58.5L62.7334 33.3179H63.7808L67.9922 44.0698H66.7031ZM64.9819 39.5435L63.7368 36.2256C63.5757 35.8057 63.4097 35.2905 63.2388 34.6802C63.1313 35.1489 62.9775 35.6641 62.7773 36.2256L61.5176 39.5435H64.9819ZM73.0916 44.2163C72.5691 44.2163 72.0906 44.1211 71.6561 43.9307C71.2264 43.7354 70.865 43.4375 70.5721 43.0371H70.4842C70.5428 43.5059 70.5721 43.9502 70.5721 44.3701V47.6733H69.3562V36.0425H70.345L70.5135 37.1411H70.5721C70.8846 36.7017 71.2483 36.3843 71.6634 36.189C72.0784 35.9937 72.5545 35.896 73.0916 35.896C74.1561 35.896 74.9764 36.2598 75.5525 36.9873C76.1336 37.7148 76.4241 38.7354 76.4241 40.0488C76.4241 41.3672 76.1287 42.3926 75.5379 43.125C74.952 43.8525 74.1365 44.2163 73.0916 44.2163ZM72.9158 36.9287C72.0955 36.9287 71.5022 37.1558 71.136 37.6099C70.7698 38.064 70.5818 38.7866 70.5721 39.7778V40.0488C70.5721 41.1768 70.7601 41.9849 71.136 42.4731C71.512 42.9565 72.115 43.1982 72.9451 43.1982C73.6385 43.1982 74.1805 42.9175 74.5711 42.356C74.9666 41.7944 75.1644 41.0205 75.1644 40.0342C75.1644 39.0332 74.9666 38.2666 74.5711 37.7344C74.1805 37.1973 73.6287 36.9287 72.9158 36.9287ZM82.3658 44.2163C81.8434 44.2163 81.3648 44.1211 80.9303 43.9307C80.5006 43.7354 80.1393 43.4375 79.8463 43.0371H79.7584C79.817 43.5059 79.8463 43.9502 79.8463 44.3701V47.6733H78.6305V36.0425H79.6192L79.7877 37.1411H79.8463C80.1588 36.7017 80.5226 36.3843 80.9376 36.189C81.3526 35.9937 81.8287 35.896 82.3658 35.896C83.4303 35.896 84.2506 36.2598 84.8268 36.9873C85.4078 37.7148 85.6983 38.7354 85.6983 40.0488C85.6983 41.3672 85.4029 42.3926 84.8121 43.125C84.2262 43.8525 83.4107 44.2163 82.3658 44.2163ZM82.19 36.9287C81.3697 36.9287 80.7765 37.1558 80.4103 37.6099C80.044 38.064 79.8561 38.7866 79.8463 39.7778V40.0488C79.8463 41.1768 80.0343 41.9849 80.4103 42.4731C80.7862 42.9565 81.3893 43.1982 82.2193 43.1982C82.9127 43.1982 83.4547 42.9175 83.8453 42.356C84.2408 41.7944 84.4386 41.0205 84.4386 40.0342C84.4386 39.0332 84.2408 38.2666 83.8453 37.7344C83.4547 37.1973 82.9029 36.9287 82.19 36.9287ZM98.1018 41.2207C98.1018 42.1631 97.76 42.8979 97.0764 43.4253C96.3928 43.9526 95.465 44.2163 94.2932 44.2163C93.0236 44.2163 92.0471 44.0527 91.3635 43.7256V42.5244C91.8029 42.71 92.2814 42.8564 92.799 42.9639C93.3166 43.0713 93.8293 43.125 94.3371 43.125C95.1672 43.125 95.7922 42.9688 96.2121 42.6562C96.632 42.3389 96.842 41.8994 96.842 41.3379C96.842 40.9668 96.7663 40.6641 96.6149 40.4297C96.4685 40.1904 96.2194 39.9707 95.8679 39.7705C95.5212 39.5703 94.9914 39.3433 94.2785 39.0894C93.2824 38.7329 92.5695 38.3105 92.1398 37.8223C91.715 37.334 91.5026 36.6968 91.5026 35.9106C91.5026 35.0854 91.8127 34.4287 92.4328 33.9404C93.0529 33.4521 93.8732 33.208 94.8937 33.208C95.9582 33.208 96.9372 33.4033 97.8308 33.7939L97.4426 34.8779C96.5588 34.5068 95.6994 34.3213 94.8645 34.3213C94.2053 34.3213 93.6901 34.4629 93.319 34.7461C92.9479 35.0293 92.7624 35.4224 92.7624 35.9253C92.7624 36.2964 92.8308 36.6016 92.9675 36.8408C93.1042 37.0752 93.3337 37.2925 93.656 37.4927C93.9831 37.688 94.4812 37.9053 95.1501 38.1445C96.2731 38.5449 97.0446 38.9746 97.4646 39.4336C97.8894 39.8926 98.1018 40.4883 98.1018 41.2207ZM102.776 43.2129C102.991 43.2129 103.199 43.1982 103.399 43.1689C103.599 43.1348 103.758 43.1006 103.875 43.0664V43.9966C103.743 44.0601 103.548 44.1113 103.289 44.1504C103.035 44.1943 102.806 44.2163 102.601 44.2163C101.048 44.2163 100.271 43.3984 100.271 41.7627V36.9873H99.1216V36.4014L100.271 35.896L100.784 34.1821H101.487V36.0425H103.816V36.9873H101.487V41.7114C101.487 42.1948 101.602 42.5659 101.832 42.8247C102.061 43.0835 102.376 43.2129 102.776 43.2129ZM112.49 40.0488C112.49 41.3574 112.16 42.3804 111.501 43.1177C110.842 43.8501 109.931 44.2163 108.769 44.2163C108.052 44.2163 107.414 44.0479 106.858 43.7109C106.301 43.374 105.871 42.8906 105.569 42.2607C105.266 41.6309 105.115 40.8936 105.115 40.0488C105.115 38.7402 105.442 37.7222 106.096 36.9946C106.75 36.2622 107.658 35.896 108.821 35.896C109.944 35.896 110.835 36.2695 111.494 37.0166C112.158 37.7637 112.49 38.7744 112.49 40.0488ZM106.374 40.0488C106.374 41.0742 106.579 41.8555 106.99 42.3926C107.4 42.9297 108.003 43.1982 108.799 43.1982C109.595 43.1982 110.198 42.9321 110.608 42.3999C111.023 41.8628 111.23 41.0791 111.23 40.0488C111.23 39.0283 111.023 38.2544 110.608 37.7271C110.198 37.1948 109.59 36.9287 108.784 36.9287C107.988 36.9287 107.388 37.1899 106.982 37.7124C106.577 38.2349 106.374 39.0137 106.374 40.0488ZM118.366 35.896C118.722 35.896 119.042 35.9253 119.325 35.9839L119.157 37.1118C118.825 37.0386 118.532 37.002 118.278 37.002C117.629 37.002 117.072 37.2656 116.608 37.793C116.149 38.3203 115.92 38.9771 115.92 39.7632V44.0698H114.704V36.0425H115.707L115.846 37.5293H115.905C116.203 37.0068 116.562 36.604 116.982 36.3208C117.401 36.0376 117.863 35.896 118.366 35.896ZM124.293 44.2163C123.106 44.2163 122.169 43.855 121.48 43.1323C120.797 42.4097 120.455 41.4062 120.455 40.1221C120.455 38.8281 120.772 37.8003 121.407 37.0386C122.047 36.2769 122.904 35.896 123.978 35.896C124.984 35.896 125.78 36.228 126.366 36.8921C126.952 37.5513 127.245 38.4229 127.245 39.5068V40.2759H121.715C121.739 41.2183 121.976 41.9336 122.425 42.4219C122.879 42.9102 123.517 43.1543 124.337 43.1543C125.201 43.1543 126.056 42.9736 126.9 42.6123V43.6963C126.471 43.8818 126.063 44.0137 125.677 44.0918C125.296 44.1748 124.835 44.2163 124.293 44.2163ZM123.963 36.9141C123.319 36.9141 122.804 37.124 122.418 37.5439C122.037 37.9639 121.812 38.5449 121.744 39.2871H125.941C125.941 38.5205 125.77 37.9346 125.428 37.5293C125.086 37.1191 124.598 36.9141 123.963 36.9141Z" fill="white"/>
<defs>
<clipPath id="clip0_2438_1064">
<rect width="26" height="26" fill="white" transform="translate(20.5 17.0698)"/>
</clipPath>
</defs>
</svg>
